<svg version="1.1" xmlns="http://www.w3.org/2000/svg" xmlns:xlink="http://www.w3.org/1999/xlink" width="800" height="800"><defs/><g transform="scale(2,2)"><g id="background-68dd883b"><rect fill="white" stroke="none" x="0" y="0" width="400" height="400" class="dcg-svg-background"/></g><g id="background-images-68dd883b"/><g id="graphpaper-68dd883b"><g id="axis-68dd883b"><g id="yaxis-68dd883b"><title>Y axis</title><path fill="none" stroke="rgb(0,0,0)" class="dcg-svg-axis-line" paint-order="fill stroke markers" d=" M 139 3 L 139 400" stroke-opacity="0.9" stroke-miterlimit="10" stroke-width="1.5" stroke-dasharray=""/><g class="dcg-svg-axis-line"><path fill="rgb(0,0,0)" stroke="rgb(0,0,0)" class="dcg-svg-axis-line" paint-order="stroke fill markers" d=" M 139 1.5 L 142.10582854123024 13.09110991546882 L 135.89417145876976 13.09110991546882 L 139 1.5 L 142.10582854123024 13.09110991546882" stroke-opacity="0.9" stroke-linejoin="round" stroke-miterlimit="10" stroke-width="1.5" stroke-dasharray="" fill-opacity="0.9"/></g></g><g id="xaxis-68dd883b"><title>X axis</title><path fill="none" stroke="rgb(0,0,0)" class="dcg-svg-axis-line" paint-order="fill stroke markers" d=" M 0 278 L 397 278" stroke-opacity="0.9" stroke-miterlimit="10" stroke-width="1.5" stroke-dasharray=""/><g class="dcg-svg-axis-line"><path fill="rgb(0,0,0)" stroke="rgb(0,0,0)" class="dcg-svg-axis-line" paint-order="stroke fill markers" d=" M 398.5 278 L 386.9088900845312 281.10582854123027 L 386.9088900845312 274.89417145876973 L 398.5 278 L 386.9088900845312 281.10582854123027" stroke-opacity="0.9" stroke-linejoin="round" stroke-miterlimit="10" stroke-width="1.5" stroke-dasharray="" fill-opacity="0.9"/></g></g><g><g class="dcg-svg-axis-value"><text fill="none" stroke="#ffffff" font-family="Arial" font-size="14px" font-style="normal" font-weight="normal" text-decoration="normal" x="129.99285294495883" y="293.7648795151222" text-anchor="middle" stroke-miterlimit="2" stroke-width="3" stroke-dasharray="">0</text><text fill="#000000" stroke="none" font-family="Arial" font-size="14px" font-style="normal" font-weight="normal" text-decoration="normal" x="129.99285294495883" y="293.7648795151222" text-anchor="middle">0</text></g><g><path fill="none" stroke="rgb(0,0,0)" class="dcg-svg-tickmark" paint-order="fill stroke markers" d=" M 28 275 L 28 281 M 250 275 L 250 281 M 361 275 L 361 281 M 136 389 L 142 389 M 136 167 L 142 167 M 136 56 L 142 56" stroke-opacity="0.9" stroke-miterlimit="2" stroke-width="1.5" stroke-dasharray=""/></g><g class="dcg-svg-axis-value"><text fill="none" stroke="#ffffff" font-family="Arial" font-size="14px" font-style="normal" font-weight="normal" text-decoration="normal" x="25.393998933333606" y="293.7648795151222" text-anchor="middle" stroke-miterlimit="2" stroke-width="3" stroke-dasharray="">-1</text><text fill="#000000" stroke="none" font-family="Arial" font-size="14px" font-style="normal" font-weight="normal" text-decoration="normal" x="25.393998933333606" y="293.7648795151222" text-anchor="middle">-1</text></g><g class="dcg-svg-axis-value"><text fill="none" stroke="#ffffff" font-family="Arial" font-size="14px" font-style="normal" font-weight="normal" text-decoration="normal" x="250.04678508158406" y="293.7648795151222" text-anchor="middle" stroke-miterlimit="2" stroke-width="3" stroke-dasharray="">1</text><text fill="#000000" stroke="none" font-family="Arial" font-size="14px" font-style="normal" font-weight="normal" text-decoration="normal" x="250.04678508158406" y="293.7648795151222" text-anchor="middle">1</text></g><g class="dcg-svg-axis-value"><text fill="none" stroke="#ffffff" font-family="Arial" font-size="14px" font-style="normal" font-weight="normal" text-decoration="normal" x="361.2076508119593" y="293.7648795151222" text-anchor="middle" stroke-miterlimit="2" stroke-width="3" stroke-dasharray="">2</text><text fill="#000000" stroke="none" font-family="Arial" font-size="14px" font-style="normal" font-weight="normal" text-decoration="normal" x="361.2076508119593" y="293.7648795151222" text-anchor="middle">2</text></g><g class="dcg-svg-axis-value"><text fill="none" stroke="#ffffff" font-family="Arial" font-size="14px" font-style="normal" font-weight="normal" text-decoration="normal" x="127.66179825745883" y="392.9257452454974" text-anchor="middle" stroke-miterlimit="2" stroke-width="3" stroke-dasharray="">-1</text><text fill="#000000" stroke="none" font-family="Arial" font-size="14px" font-style="normal" font-weight="normal" text-decoration="normal" x="127.66179825745883" y="392.9257452454974" text-anchor="middle">-1</text></g><g class="dcg-svg-axis-value"><text fill="none" stroke="#ffffff" font-family="Arial" font-size="14px" font-style="normal" font-weight="normal" text-decoration="normal" x="129.99285294495883" y="170.60401378474694" text-anchor="middle" stroke-miterlimit="2" stroke-width="3" stroke-dasharray="">1</text><text fill="#000000" stroke="none" font-family="Arial" font-size="14px" font-style="normal" font-weight="normal" text-decoration="normal" x="129.99285294495883" y="170.60401378474694" text-anchor="middle">1</text></g><g class="dcg-svg-axis-value"><text fill="none" stroke="#ffffff" font-family="Arial" font-size="14px" font-style="normal" font-weight="normal" text-decoration="normal" x="129.99285294495883" y="59.44314805437174" text-anchor="middle" stroke-miterlimit="2" stroke-width="3" stroke-dasharray="">2</text><text fill="#000000" stroke="none" font-family="Arial" font-size="14px" font-style="normal" font-weight="normal" text-decoration="normal" x="129.99285294495883" y="59.44314805437174" text-anchor="middle">2</text></g></g></g></g><g id="expressions-68dd883b"><g id="sketch-68dd883b"><title/><path fill="none" stroke="#c74440" class="dcg-svg-point" paint-order="fill stroke markers" d=" M 27.125053620833604 277.35687951512216 L 27.125053620833604 277.5568795151222 L 27.325053620833607 277.5568795151222 L 27.325053620833607 277.35687951512216" stroke-linecap="round" stroke-linejoin="round" stroke-miterlimit="10" stroke-width="7.5" stroke-opacity="0.9" stroke-dasharray=""/><path fill="none" stroke="#c74440" class="dcg-svg-point" paint-order="fill stroke markers" d=" M 360.6076508119593 277.35687951512216 L 360.6076508119593 277.5568795151222 L 360.8076508119593 277.5568795151222 L 360.8076508119593 277.35687951512216" stroke-linecap="round" stroke-linejoin="round" stroke-miterlimit="10" stroke-width="7.5" stroke-opacity="0.9" stroke-dasharray=""/></g><g id="sketch-68dd883b"><title>Expression 2</title><path fill="#388c46" stroke="none" paint-order="stroke fill markers" d="" fill-opacity="0.4"/><g><path fill="none" stroke="#388c46" class="dcg-svg-curve" paint-order="fill stroke markers" d=" M -0.5 367.54705127851463 L -0.5 367.54705127851463 L 5.945312500000002 345.3697251834086 L 12.292968750000004 324.25894037179694 L 18.54296874999998 304.181237857826 L 24.695312500000007 285.10367340926996 L 30.750000000000007 266.9938175475321 L 36.70703124999999 249.8197555476442 L 42.56640625000001 233.5500874382662 L 48.328125 218.1539280016869 L 53.992187499999986 203.6009067738234 L 59.65624999999999 189.62509594807608 L 65.22265624999999 176.45261571710554 L 70.69140624999999 164.05412512408606 L 76.0625 152.40079796582035 L 81.3359375 141.46432279273967 L 86.609375 131.02818814658258 L 91.78515624999999 121.27184322435699 L 96.86328125 112.1680060837511 L 101.84375 103.68990953608187 L 106.82421874999999 95.65810438434147 L 111.70703124999997 88.21703657879806 L 116.58984374999997 81.2049301303565 L 121.37499999999999 74.74924411954396 L 126.16015624999999 68.70553259609198 L 130.84765624999997 63.18461093987224 L 135.53515624999997 58.05902007035746 L 140.22265624999997 53.328759987547755 L 144.91015624999997 48.993830691443065 L 149.59765624999997 45.054232182043336 L 154.28515625 41.50996445934868 L 158.97265625 38.361027523358985 L 163.46484375 35.7142620746572 L 167.76171875 33.52231077941923 L 171.9609375 31.701125446456558 L 176.0625 30.22857166974285 L 180.06640625 29.083029796880055 L 183.97265625 28.243394929098827 L 187.87890625 27.678295329862692 L 191.6875 27.391649208853664 L 195.49609375 27.365983177505314 L 199.3046875 27.601297235817754 L 203.11328125 28.09759138379087 L 206.921875 28.85486562142472 L 210.82812499999997 29.902660724891405 L 214.83203125 31.26156683933175 L 218.93359375 32.95268886351522 L 223.13281249999994 34.99764644983969 L 227.42968749999994 37.41857400433162 L 231.82421874999994 40.23812068664597 L 236.4140625 43.553946336462616 L 241.19921874999997 47.41443779486258 L 245.88671874999997 51.595592529028465 L 250.57421874999997 56.17207804989937 L 255.26171874999997 61.14389435747523 L 259.94921874999994 66.51104145175617 L 264.63671874999994 72.27351933274201 L 269.32421874999994 78.43132800043298 L 274.10937499999994 85.1251950147618 L 278.89453124999994 92.23103651645113 L 283.77734374999994 99.90656693517525 L 288.66015624999994 108.011058711001 L 293.64062499999994 116.71955631242957 L 298.71874999999994 126.05831217451566 L 303.796875 135.86103264044294 L 308.97265625 146.32970095193858 L 314.24609375 157.4915990513141 L 319.6171875 169.3745236345099 L 324.98828125 181.77649145979876 L 330.45703125 194.9372343683328 L 336.0234375 208.88557856330922 L 341.6875 223.65086500155368 L 347.44921875 239.26294939352064 L 353.30859375 255.75220220329277 L 359.265625 273.14950864858145 L 365.22265625 291.1852811777803 L 371.27734375 310.17097397094915 L 377.4296875 330.1385017530557 L 383.6796875 351.12029400269734 L 390.02734375 373.14929495209947 L 396.47265625 396.25896358711583 L 398.9901587723077 405.5" stroke-linecap="round" stroke-linejoin="round" stroke-miterlimit="10" stroke-width="2.5" stroke-opacity="0.9" stroke-dasharray=""/></g></g></g><g id="labels-68dd883b"/></g></svg>