<svg xmlns="http://www.w3.org/2000/svg" width="320" height="320"><path fill="#fff" class="dcg-svg-background" d="M0 0h320v320H0z"/><g transform="scale(2)"><path fill="none" stroke="#000" class="dcg-svg-axis-line" paint-order="fill stroke markers" d="M47 3v157" stroke-opacity=".9" stroke-miterlimit="10" stroke-width="1.5"/><g class="dcg-svg-axis-line"><path stroke="#000" class="dcg-svg-axis-line" paint-order="stroke fill markers" d="m47 1.5 3.106 11.591h-6.212L47 1.5l3.106 11.591" stroke-opacity=".9" stroke-linejoin="round" stroke-miterlimit="10" stroke-width="1.5" fill-opacity=".9"/></g></g><g transform="scale(2)"><path fill="none" stroke="#000" class="dcg-svg-axis-line" paint-order="fill stroke markers" d="M0 100h157" stroke-opacity=".9" stroke-miterlimit="10" stroke-width="1.5"/><g class="dcg-svg-axis-line"><path stroke="#000" class="dcg-svg-axis-line" paint-order="stroke fill markers" d="m158.5 100-11.591 3.106v-6.212L158.5 100l-11.591 3.106" stroke-opacity=".9" stroke-linejoin="round" stroke-miterlimit="10" stroke-width="1.5" fill-opacity=".9"/></g></g><g class="dcg-svg-axis-value" font-family="Arial" font-size="10" text-anchor="middle"><text fill="none" stroke="#fff" text-decoration="normal" x="39.197" y="112.817" stroke-miterlimit="2" stroke-width="3" transform="scale(2)">0</text><text text-decoration="normal" x="39.197" y="112.817" transform="scale(2)">0</text></g><g><g transform="scale(2)"><path fill="none" stroke="#c74440" class="dcg-svg-curve" paint-order="fill stroke markers" d="M-.5 154.312h0l2.617-6.659 2.578-6.332 2.54-6.018 2.538-5.799 2.5-5.497 2.461-5.205 2.422-4.922 2.383-4.65 2.383-4.457 2.344-4.197 2.304-3.945 2.305-3.767 2.266-3.527 2.226-3.297 2.227-3.13 2.187-2.912 2.188-2.75 2.187-2.588 2.149-2.384 2.148-2.228 2.149-2.073 2.148-1.916 2.148-1.76 2.188-1.631 2.148-1.446 2.07-1.244 2.032-1.08 1.953-.908 1.914-.764 1.875-.629 1.836-.5 1.797-.379 1.797-.27 1.758-.158 1.757-.054 1.758.05 1.758.155 1.758.26 1.797.373 1.797.482 1.836.606 1.875.736 1.914.874 1.953 1.02 1.992 1.173 2.07 1.361 2.149 1.566 2.187 1.754 2.149 1.881 2.148 2.037 2.149 2.193 2.148 2.349 2.148 2.505 2.188 2.71 2.187 2.874 2.188 3.034 2.226 3.255 2.227 3.422 2.266 3.655 2.265 3.828 2.305 4.073 2.344 4.325 2.343 4.511 2.383 4.777 2.422 5.052 2.461 5.336 2.5 5.631 2.5 5.843 2.54 6.15 2.577 6.467 2.617 6.795 2.657 7.134.006.017" stroke-linecap="round" stroke-linejoin="round" stroke-miterlimit="10" stroke-width="2.5" stroke-opacity=".9"/></g></g></svg>