<svg xmlns="http://www.w3.org/2000/svg" width="320" height="320"><path fill="#fff" class="dcg-svg-background" d="M0 0h320v320H0z"/><g transform="scale(2)"><path fill="none" stroke="#000" class="dcg-svg-axis-line" paint-order="fill stroke markers" d="M68 3v157" stroke-opacity=".9" stroke-miterlimit="10" stroke-width="1.5"/><g class="dcg-svg-axis-line"><path stroke="#000" class="dcg-svg-axis-line" paint-order="stroke fill markers" d="m68 1.5 3.106 11.591h-6.212L68 1.5l3.106 11.591" stroke-opacity=".9" stroke-linejoin="round" stroke-miterlimit="10" stroke-width="1.5" fill-opacity=".9"/></g></g><g transform="scale(2)"><path fill="none" stroke="#000" class="dcg-svg-axis-line" paint-order="fill stroke markers" d="M0 123h157" stroke-opacity=".9" stroke-miterlimit="10" stroke-width="1.5"/><g class="dcg-svg-axis-line"><path stroke="#000" class="dcg-svg-axis-line" paint-order="stroke fill markers" d="m158.5 123-11.591 3.106v-6.212L158.5 123l-11.591 3.106" stroke-opacity=".9" stroke-linejoin="round" stroke-miterlimit="10" stroke-width="1.5" fill-opacity=".9"/></g></g><g><g transform="scale(2)"><path fill="none" stroke="#c74440" class="dcg-svg-curve" paint-order="fill stroke markers" d="M-.5 152.634h0l2.422-7.865 2.383-7.46 2.343-7.067 2.305-6.69 2.266-6.324 2.226-5.972 2.188-5.633 2.148-5.305 2.149-5.08 2.11-4.77 2.07-4.471 2.03-4.184 1.993-3.909 1.992-3.715 1.953-3.455 1.914-3.206 1.914-3.028 1.875-2.793 1.836-2.57 1.836-2.405 1.836-2.241 1.797-2.035 1.797-1.878 1.797-1.72 1.797-1.565 1.796-1.406 1.836-1.275 1.758-1.067 1.68-.88 1.64-.726 1.563-.57 1.523-.441 1.524-.328 1.484-.212 1.485-.104 1.445.002 1.445.103 1.485.211 1.484.32 1.523.438 1.524.552 1.562.683 1.602.823 1.68.998 1.718 1.163 1.797 1.37 1.797 1.526 1.797 1.683 1.797 1.84 1.797 1.999 1.797 2.154 1.796 2.312 1.836 2.525 1.836 2.688 1.875 2.915 1.875 3.085 1.914 3.327 1.954 3.578 1.953 3.764 1.992 4.03 2.031 4.308 2.07 4.597 2.07 4.806 2.11 5.11 2.149 5.429 2.187 5.757 2.227 6.1 2.265 6.454 2.266 6.703 2.305 7.076 2.343 7.46 2.383 7.859 2.422 8.27.339 1.198" stroke-linecap="round" stroke-linejoin="round" stroke-miterlimit="10" stroke-width="2.5" stroke-opacity=".9"/></g><g transform="scale(2)"><path fill="none" stroke="#000" class="dcg-svg-curve" paint-order="fill stroke markers" d="M26.354 81.384h0l41.113-41.112" stroke-linecap="round" stroke-linejoin="round" stroke-miterlimit="10" stroke-width="2.5" stroke-opacity=".9"/></g><g transform="scale(2)"><path fill="none" stroke="#000" class="dcg-svg-curve" paint-order="fill stroke markers" d="M67.467 122.497h0l41.112-41.113" stroke-linecap="round" stroke-linejoin="round" stroke-miterlimit="10" stroke-width="2.5" stroke-opacity=".9"/></g><g transform="scale(2)"><path fill="none" stroke="#000" class="dcg-svg-curve" paint-order="fill stroke markers" d="M26.354 81.384h0l41.113 41.113" stroke-linecap="round" stroke-linejoin="round" stroke-miterlimit="10" stroke-width="2.5" stroke-opacity=".9"/></g><g transform="scale(2)"><path fill="none" stroke="#000" class="dcg-svg-curve" paint-order="fill stroke markers" d="M67.467 40.272h0l41.112 41.112" stroke-linecap="round" stroke-linejoin="round" stroke-miterlimit="10" stroke-width="2.5" stroke-opacity=".9"/></g><g transform="scale(2)"><path fill="none" stroke="#000" class="dcg-svg-point" paint-order="fill stroke markers" d="M67.367 40.172v.2h.2v-.2" stroke-linecap="round" stroke-linejoin="round" stroke-miterlimit="10" stroke-width="7.5" stroke-opacity=".9"/></g><g transform="scale(2)"><path fill="none" stroke="#000" class="dcg-svg-point" paint-order="fill stroke markers" d="M108.479 81.284v.2h.2v-.2" stroke-linecap="round" stroke-linejoin="round" stroke-miterlimit="10" stroke-width="7.5" stroke-opacity=".9"/></g><g transform="scale(2)"><path fill="none" stroke="#000" class="dcg-svg-point" paint-order="fill stroke markers" d="M26.254 81.284v.2h.2v-.2" stroke-linecap="round" stroke-linejoin="round" stroke-miterlimit="10" stroke-width="7.5" stroke-opacity=".9"/></g><g transform="scale(2)"><path fill="none" stroke="#000" class="dcg-svg-point" paint-order="fill stroke markers" d="M67.367 122.397v.2h.2v-.2" stroke-linecap="round" stroke-linejoin="round" stroke-miterlimit="10" stroke-width="7.5" stroke-opacity=".9"/></g></g><g><g class="dcg-svg-label"><text fill="none" stroke="#FFF" font-family="arial, sans-serif" font-size="12" font-weight="400" text-decoration="normal" y="11.264" stroke-linecap="round" stroke-linejoin="round" stroke-miterlimit="2" stroke-width="3" stroke-opacity=".9" transform="matrix(2 0 0 2 104.875 38.531)">A</text><text font-family="arial, sans-serif" font-size="12" font-weight="400" text-decoration="normal" y="11.264" fill-opacity=".9" transform="matrix(2 0 0 2 104.875 38.531)">A</text></g><g class="dcg-svg-label"><text fill="none" stroke="#FFF" font-family="arial, sans-serif" font-size="12" font-weight="400" text-decoration="normal" y="11.264" stroke-linecap="round" stroke-linejoin="round" stroke-miterlimit="2" stroke-width="3" stroke-opacity=".9" transform="matrix(2 0 0 2 243.156 148.75)">C</text><text font-family="arial, sans-serif" font-size="12" font-weight="400" text-decoration="normal" y="11.264" fill-opacity=".9" transform="matrix(2 0 0 2 243.156 148.75)">C</text></g><g class="dcg-svg-label"><text fill="none" stroke="#FFF" font-family="arial, sans-serif" font-size="12" font-weight="400" text-decoration="normal" y="11.264" stroke-linecap="round" stroke-linejoin="round" stroke-miterlimit="2" stroke-width="3" stroke-opacity=".9" transform="matrix(2 0 0 2 78.688 148.75)">B</text><text font-family="arial, sans-serif" font-size="12" font-weight="400" text-decoration="normal" y="11.264" fill-opacity=".9" transform="matrix(2 0 0 2 78.688 148.75)">B</text></g><g class="dcg-svg-label"><text fill="none" stroke="#FFF" font-family="arial, sans-serif" font-size="12" font-weight="400" text-decoration="normal" y="11.264" stroke-linecap="round" stroke-linejoin="round" stroke-miterlimit="2" stroke-width="3" stroke-opacity=".9" transform="matrix(2 0 0 2 102.219 258.969)">O</text><text font-family="arial, sans-serif" font-size="12" font-weight="400" text-decoration="normal" y="11.264" fill-opacity=".9" transform="matrix(2 0 0 2 102.219 258.969)">O</text></g></g></svg>