<svg xmlns="http://www.w3.org/2000/svg" width="320" height="320"><path fill="#fff" class="dcg-svg-background" d="M0 0h320v320H0z"/><g transform="scale(2)"><path fill="none" stroke="#000" class="dcg-svg-axis-line" paint-order="fill stroke markers" d="M98 3v157" stroke-opacity=".9" stroke-miterlimit="10" stroke-width="1.5"/><g class="dcg-svg-axis-line"><path stroke="#000" class="dcg-svg-axis-line" paint-order="stroke fill markers" d="m98 1.5 3.106 11.591h-6.212L98 1.5l3.106 11.591" stroke-opacity=".9" stroke-linejoin="round" stroke-miterlimit="10" stroke-width="1.5" fill-opacity=".9"/></g></g><g transform="scale(2)"><path fill="none" stroke="#000" class="dcg-svg-axis-line" paint-order="fill stroke markers" d="M0 73h157" stroke-opacity=".9" stroke-miterlimit="10" stroke-width="1.5"/><g class="dcg-svg-axis-line"><path stroke="#000" class="dcg-svg-axis-line" paint-order="stroke fill markers" d="m158.5 73-11.591 3.106v-6.212L158.5 73l-11.591 3.106" stroke-opacity=".9" stroke-linejoin="round" stroke-miterlimit="10" stroke-width="1.5" fill-opacity=".9"/></g></g><g class="dcg-svg-axis-value" font-family="Arial" text-anchor="middle"><text font-size="10" text-decoration="normal" x="90.653" y="85.404" transform="scale(2)">O</text><text fill="#900" font-size="20" text-decoration="normal" x="130" y="150" transform="scale(2)">a&gt;0</text></g><g><g transform="scale(2)"><path fill="none" stroke="#388c46" class="dcg-svg-curve" paint-order="fill stroke markers" d="M17.361-5.5h0l.733 3.73 2.148 10.532 2.11 9.946 2.07 9.383 2.031 8.842 1.992 8.32 1.953 7.819 1.915 7.338 1.874 6.878 1.875 6.57 1.836 6.133 1.797 5.718 1.758 5.32 1.719 4.939 1.68 4.577 1.64 4.232 1.602 3.903 1.562 3.592 1.563 3.378 1.523 3.088 1.485 2.813 1.445 2.553 1.445 2.37 1.406 2.13 1.368 1.905 1.367 1.742 1.367 1.577 1.328 1.376 1.328 1.22 1.328 1.067 1.368.937 1.289.733 1.21.556 1.172.415 1.133.287 1.094.171 1.094.066 1.093-.039 1.094-.144 1.094-.248 1.133-.368 1.172-.5 1.21-.642 1.25-.797 1.329-.998 1.367-1.188 1.328-1.31 1.328-1.467 1.328-1.62 1.368-1.83 1.367-1.992 1.406-2.221 1.406-2.394 1.445-2.642 1.485-2.903 1.484-3.096 1.524-3.379 1.562-3.676 1.602-3.99 1.64-4.322 1.641-4.556 1.68-4.91 1.718-5.28 1.758-5.666 1.797-6.074 1.836-6.497 1.875-6.94 1.914-7.403 1.953-7.885 1.992-8.387 1.993-8.734 2.03-9.264 2.071-9.814 2.11-10.386.507-2.594" stroke-linecap="round" stroke-linejoin="round" stroke-miterlimit="10" stroke-width="2.5" stroke-opacity=".9"/></g></g></svg>