<svg xmlns="http://www.w3.org/2000/svg" width="320" height="320"><path fill="#fff" class="dcg-svg-background" d="M0 0h320v320H0z"/><g transform="scale(2)"><path fill="none" stroke="#000" class="dcg-svg-axis-line" paint-order="fill stroke markers" d="M96 3v157" stroke-opacity=".9" stroke-miterlimit="10" stroke-width="1.5"/><g class="dcg-svg-axis-line"><path stroke="#000" class="dcg-svg-axis-line" paint-order="stroke fill markers" d="m96 1.5 3.106 11.591h-6.212L96 1.5l3.106 11.591" stroke-opacity=".9" stroke-linejoin="round" stroke-miterlimit="10" stroke-width="1.5" fill-opacity=".9"/></g></g><g transform="scale(2)"><path fill="none" stroke="#000" class="dcg-svg-axis-line" paint-order="fill stroke markers" d="M0 94h157" stroke-opacity=".9" stroke-miterlimit="10" stroke-width="1.5"/><g class="dcg-svg-axis-line"><path stroke="#000" class="dcg-svg-axis-line" paint-order="stroke fill markers" d="m158.5 94-11.591 3.106v-6.212L158.5 94l-11.591 3.106" stroke-opacity=".9" stroke-linejoin="round" stroke-miterlimit="10" stroke-width="1.5" fill-opacity=".9"/></g></g><g class="dcg-svg-axis-value" font-family="Arial" text-anchor="middle"><text font-size="10" text-decoration="normal" x="87.899" y="106.575" transform="scale(2)">O</text><text fill="#900" font-size="20" text-decoration="normal" x="130" y="150" transform="scale(2)">a&lt;0</text></g><g><g transform="scale(2)"><path fill="none" stroke="#388c46" class="dcg-svg-curve" paint-order="fill stroke markers" d="M15.704 165.5h0l2.077-10.127 2.11-9.892 2.07-9.33 2.031-8.79 1.992-8.268 1.954-7.77 1.914-7.289 1.875-6.829 1.835-6.389 1.797-5.966 1.797-5.684 1.758-5.286 1.719-4.907 1.68-4.546 1.64-4.2 1.602-3.874 1.562-3.563 1.524-3.267 1.523-3.064 1.484-2.79 1.446-2.531L54.5 38.85l1.406-2.114 1.367-1.889 1.368-1.724 1.328-1.52 1.328-1.364 1.328-1.21 1.328-1.054 1.367-.925 1.29-.722 1.21-.545 1.172-.406 1.133-.277 1.094-.162 1.094-.056 1.093.048 1.094.153 1.094.258 1.133.378 1.171.509 1.211.652 1.25.809 1.329 1.008 1.367 1.2 1.328 1.323 1.328 1.477 1.328 1.631 1.367 1.841 1.367 2.005 1.407 2.233 1.406 2.406 1.445 2.654 1.485 2.916L97 51.494l1.523 3.39 1.563 3.69 1.602 4.005 1.64 4.334 1.64 4.571 1.68 4.924 1.72 5.294 1.757 5.683 1.797 6.088 1.836 6.513 1.875 6.957 1.914 7.419 1.953 7.901 1.992 8.404 2.031 8.927 2.032 9.288 2.07 9.839 1.374 6.779" stroke-linecap="round" stroke-linejoin="round" stroke-miterlimit="10" stroke-width="2.5" stroke-opacity=".9"/></g></g></svg>