<?xml version="1.0" encoding="UTF-8" standalone="no" ?>
<!DOCTYPE svg PUBLIC "-//W3C//DTD SVG 1.1//EN" "http://www.w3.org/Graphics/SVG/1.1/DTD/svg11.dtd">
<svg xmlns="http://www.w3.org/2000/svg" xmlns:xlink="http://www.w3.org/1999/xlink" version="1.1" width="500" height="500" viewBox="0 0 500 500" xml:space="preserve">
<desc>Created with Fabric.js 4.6.0</desc>
<defs>
</defs>
<g transform="matrix(2 0 0 2 248.33 250)" id="a2cRD-S5bgQjZqEXyJZtz"  >
<path style="stroke: rgb(0,0,0); stroke-opacity: 0.9; stroke-width: 1.5; stroke-dasharray: none; stroke-linecap: butt; stroke-dashoffset: 0; stroke-linejoin: miter; stroke-miterlimit: 10; fill: none; fill-rule: nonzero; opacity: 1;" vector-effect="non-scaling-stroke"  transform=" translate(-80, -80)" d="M 80 0 L 80 160" stroke-linecap="round" />
</g>
<g transform="matrix(2 0 0 2 248.33 250)" id="Fio7QH1FaP-qeyk_lvXig"  >
<path style="stroke: rgb(0,0,0); stroke-opacity: 0.9; stroke-width: 1.5; stroke-dasharray: none; stroke-linecap: butt; stroke-dashoffset: 0; stroke-linejoin: miter; stroke-miterlimit: 10; fill: none; fill-rule: nonzero; opacity: 1;" vector-effect="non-scaling-stroke"  transform=" translate(-80, -80)" d="M 0 80 L 160 80" stroke-linecap="round" />
</g>
<g transform="matrix(2 0 0 2 232.77 269.17)" style="" id="ZvvnyChQvwLJgEdYJuvXg"  >
		<text xml:space="preserve" font-family="Arial" font-size="10" font-style="normal" font-weight="normal" line-height="1.16" style="stroke: rgb(255,255,255); stroke-width: 3; stroke-dasharray: none; stroke-linecap: butt; stroke-dashoffset: 0; stroke-linejoin: miter; stroke-miterlimit: 2; fill: none; fill-rule: nonzero; opacity: 1; white-space: pre;" ><tspan x="-2.78" y="3.14" >0</tspan></text>
</g>
<g transform="matrix(2 0 0 2 232.77 269.17)" style="" id="2vq59rrduvnqFEhHf32G4"  >
		<text xml:space="preserve" font-family="Arial" font-size="10" font-style="normal" font-weight="normal" line-height="1.16" style="stroke: none; stroke-width: 1; stroke-dasharray: none; stroke-linecap: butt; stroke-dashoffset: 0; stroke-linejoin: miter; stroke-miterlimit: 4; fill: rgb(0,0,0); fill-rule: nonzero; opacity: 1; white-space: pre;" ><tspan x="-2.78" y="3.14" >0</tspan></text>
</g>
<g transform="matrix(2 0 0 2 108.79 269.17)" style="" id="rJZUOw3DePIU144LPRmIf"  >
		<text xml:space="preserve" font-family="Arial" font-size="10" font-style="normal" font-weight="normal" line-height="1.16" style="stroke: rgb(255,255,255); stroke-width: 3; stroke-dasharray: none; stroke-linecap: butt; stroke-dashoffset: 0; stroke-linejoin: miter; stroke-miterlimit: 2; fill: none; fill-rule: nonzero; opacity: 1; white-space: pre;" ><tspan x="-7.23" y="3.14" >-10</tspan></text>
</g>
<g transform="matrix(2 0 0 2 108.79 269.17)" style="" id="HZ5g_dO6XcAsGSfItrzL5"  >
		<text xml:space="preserve" font-family="Arial" font-size="10" font-style="normal" font-weight="normal" line-height="1.16" style="stroke: none; stroke-width: 1; stroke-dasharray: none; stroke-linecap: butt; stroke-dashoffset: 0; stroke-linejoin: miter; stroke-miterlimit: 4; fill: rgb(0,0,0); fill-rule: nonzero; opacity: 1; white-space: pre;" ><tspan x="-7.23" y="3.14" >-10</tspan></text>
</g>
<g transform="matrix(2 0 0 2 391.21 269.17)" style="" id="pVq4pjZMIf87B3GHZS1KW"  >
		<text xml:space="preserve" font-family="Arial" font-size="10" font-style="normal" font-weight="normal" line-height="1.16" style="stroke: rgb(255,255,255); stroke-width: 3; stroke-dasharray: none; stroke-linecap: butt; stroke-dashoffset: 0; stroke-linejoin: miter; stroke-miterlimit: 2; fill: none; fill-rule: nonzero; opacity: 1; white-space: pre;" ><tspan x="-5.56" y="3.14" >10</tspan></text>
</g>
<g transform="matrix(2 0 0 2 391.21 269.17)" style="" id="iv1SqolFo8BEXs8W9Yg40"  >
		<text xml:space="preserve" font-family="Arial" font-size="10" font-style="normal" font-weight="normal" line-height="1.16" style="stroke: none; stroke-width: 1; stroke-dasharray: none; stroke-linecap: butt; stroke-dashoffset: 0; stroke-linejoin: miter; stroke-miterlimit: 4; fill: rgb(0,0,0); fill-rule: nonzero; opacity: 1; white-space: pre;" ><tspan x="-5.56" y="3.14" >10</tspan></text>
</g>
<g transform="matrix(2 0 0 2 223.88 393.17)" style="" id="cURRuwoUd_pB6bDLglnW3"  >
		<text xml:space="preserve" font-family="Arial" font-size="10" font-style="normal" font-weight="normal" line-height="1.16" style="stroke: rgb(255,255,255); stroke-width: 3; stroke-dasharray: none; stroke-linecap: butt; stroke-dashoffset: 0; stroke-linejoin: miter; stroke-miterlimit: 2; fill: none; fill-rule: nonzero; opacity: 1; white-space: pre;" ><tspan x="-7.23" y="3.14" >-10</tspan></text>
</g>
<g transform="matrix(2 0 0 2 223.88 393.17)" style="" id="imv5I7l3KI71ukvDN808b"  >
		<text xml:space="preserve" font-family="Arial" font-size="10" font-style="normal" font-weight="normal" line-height="1.16" style="stroke: none; stroke-width: 1; stroke-dasharray: none; stroke-linecap: butt; stroke-dashoffset: 0; stroke-linejoin: miter; stroke-miterlimit: 4; fill: rgb(0,0,0); fill-rule: nonzero; opacity: 1; white-space: pre;" ><tspan x="-7.23" y="3.14" >-10</tspan></text>
</g>
<g transform="matrix(2 0 0 2 227.21 105.17)" style="" id="kqvnzN-Ypl8f0UU9KeeN_"  >
		<text xml:space="preserve" font-family="Arial" font-size="10" font-style="normal" font-weight="normal" line-height="1.16" style="stroke: rgb(255,255,255); stroke-width: 3; stroke-dasharray: none; stroke-linecap: butt; stroke-dashoffset: 0; stroke-linejoin: miter; stroke-miterlimit: 2; fill: none; fill-rule: nonzero; opacity: 1; white-space: pre;" ><tspan x="-5.56" y="3.14" >10</tspan></text>
</g>
<g transform="matrix(2 0 0 2 227.21 105.17)" style="" id="xmbCjMy4i6YX6PgQDuh_V"  >
		<text xml:space="preserve" font-family="Arial" font-size="10" font-style="normal" font-weight="normal" line-height="1.16" style="stroke: none; stroke-width: 1; stroke-dasharray: none; stroke-linecap: butt; stroke-dashoffset: 0; stroke-linejoin: miter; stroke-miterlimit: 4; fill: rgb(0,0,0); fill-rule: nonzero; opacity: 1; white-space: pre;" ><tspan x="-5.56" y="3.14" >10</tspan></text>
</g>
<g transform="matrix(2 0 0 2 88.33 90)" id="V4YE50J_DNVzkV_UTHh99"  >
<path style="stroke: none; stroke-width: 1; stroke-dasharray: none; stroke-linecap: butt; stroke-dashoffset: 0; stroke-linejoin: miter; stroke-miterlimit: 4; fill: rgb(199,68,64); fill-opacity: 0.4; fill-rule: nonzero; opacity: 1;" vector-effect="non-scaling-stroke"  paint-order="stroke"  transform=" translate(0, 0)" d="" stroke-linecap="round" />
</g>
<g transform="matrix(2 0 0 2 165.82 162.4)" id="jfAMs70COAcYKT0Cf7bVc"  >
<path style="stroke: rgb(199,68,64); stroke-opacity: 0.9; stroke-width: 2.5; stroke-dasharray: none; stroke-linecap: round; stroke-dashoffset: 0; stroke-linejoin: round; stroke-miterlimit: 10; fill: none; fill-rule: nonzero; opacity: 1;" vector-effect="non-scaling-stroke"  transform=" translate(-38.74, -36.2)" d="M -0.5 77.9 L -0.5 77.9 L 12.703125 77.58374269005849 L 22.859375 77.24013793103448 L 30.828125 76.8701444622793 L 37.234375 76.47153419593346 L 42.4296875 76.04710221285563 L 46.7265625 75.59439809296782 L 50.3203125 75.11338688085677 L 53.3671875 74.60194319880418 L 55.984375 74.05681063122924 L 58.2109375 73.48752293577982 L 60.1640625 72.88020202020202 L 61.8828125 72.23436807095344 L 63.40625 71.54660194174757 L 64.8125 70.78510638297873 L 66.0625 69.97441860465116 L 67.234375 69.06433121019109 L 68.25 68.12222222222222 L 69.1484375 67.13471698113207 L 69.9296875 66.12530612244898 L 70.6328125 65.0647577092511 L 71.296875 63.89619047619047 L 71.921875 62.60927835051547 L 72.5078125 61.19385474860336 L 73.0546875 59.64060606060606 L 73.5625 57.9421052631579 L 74.03125 56.09428571428572 L 74.5 53.900000000000006 L 74.9296875 51.49316239316239 L 75.3203125 48.87570093457944 L 75.7109375 45.718556701030934 L 76.0625 42.263636363636365 L 76.4140625 38.02151898734178 L 76.7265625 33.34788732394367 L 77.0390625 27.4873015873016 L 77.3125 20.985714285714295 L 77.5859375 12.626530612244892 L 77.859375 1.480952380952374 L 77.98520278930664 -5.5" stroke-linecap="round" />
</g>
<g transform="matrix(2 0 0 2 328.83 336.6)" id="07OIU-W2BugdX8bB6d9k-"  >
<path style="stroke: rgb(199,68,64); stroke-opacity: 0.9; stroke-width: 2.5; stroke-dasharray: none; stroke-linecap: round; stroke-dashoffset: 0; stroke-linejoin: round; stroke-miterlimit: 10; fill: none; fill-rule: nonzero; opacity: 1;" vector-effect="non-scaling-stroke"  transform=" translate(-120.25, -123.3)" d="M 80.99635314941406 165.5 L 80.99635314941406 165.5 L 81.0625 161.42000000000002 L 81.3359375 149.2191489361702 L 81.609375 140.18148148148148 L 81.921875 132.3516129032258 L 82.234375 126.31142857142856 L 82.5859375 120.97848101265822 L 82.9375 116.73636363636363 L 83.328125 112.93673469387755 L 83.7578125 109.56238532110092 L 84.1875 106.80666666666667 L 84.65625 104.32424242424243 L 85.125 102.25555555555556 L 85.6328125 100.37133757961783 L 86.1796875 98.6625730994152 L 86.7265625 97.21243243243244 L 87.3125 95.884 L 87.9375 94.67037037037036 L 88.640625 93.50341880341881 L 89.3828125 92.45177865612648 L 90.203125 91.45912408759123 L 91.1015625 90.53299663299663 L 92.1171875 89.64489164086687 L 93.2890625 88.78271954674221 L 94.578125 87.98911917098445 L 95.984375 87.2649289099526 L 97.546875 86.59264069264069 L 99.3046875 85.96311637080868 L 101.2578125 85.38294434470377 L 103.484375 84.83680781758957 L 106.0234375 84.3259204712813 L 108.9921875 83.84013245033113 L 112.4296875 83.3870699881376 L 116.4921875 82.96019007391763 L 121.3359375 82.55957049486462 L 127.1953125 82.18370188370189 L 134.34375 81.83390313390314 L 143.171875 81.51030674846626 L 154.3046875 81.2111227154047 L 159.5 81.1" stroke-linecap="round" />
</g>
</svg>