<svg version="1.1" xmlns="http://www.w3.org/2000/svg" xmlns:xlink="http://www.w3.org/1999/xlink" width="320" height="320"><defs/><g transform="scale(2,2)"><g id="background-ff5c3dad"><rect fill="white" stroke="none" x="0" y="0" width="160" height="160" class="dcg-svg-background"/></g><g id="background-images-ff5c3dad"/><g id="graphpaper-ff5c3dad"><g id="axis-ff5c3dad"><g id="yaxis-ff5c3dad"><title>Y axis</title><path fill="none" stroke="rgb(0,0,0)" class="dcg-svg-axis-line" paint-order="fill stroke markers" d=" M 80 0 L 80 160" stroke-opacity="0.9" stroke-miterlimit="10" stroke-width="1.5" stroke-dasharray=""/></g><g id="xaxis-ff5c3dad"><title>X axis</title><path fill="none" stroke="rgb(0,0,0)" class="dcg-svg-axis-line" paint-order="fill stroke markers" d=" M 0 80 L 160 80" stroke-opacity="0.9" stroke-miterlimit="10" stroke-width="1.5" stroke-dasharray=""/></g><g><g class="dcg-svg-axis-value"><text fill="none" stroke="#ffffff" font-family="Arial" font-size="10px" font-style="normal" font-weight="normal" text-decoration="normal" x="72.21923828125" y="92.72" text-anchor="middle" stroke-miterlimit="2" stroke-width="3" stroke-dasharray="">0</text><text fill="#000000" stroke="none" font-family="Arial" font-size="10px" font-style="normal" font-weight="normal" text-decoration="normal" x="72.21923828125" y="92.72" text-anchor="middle">0</text></g><g><path fill="none" stroke="rgb(0,0,0)" class="dcg-svg-tickmark" paint-order="fill stroke markers" d=" M 0 77 L 0 83 M 160 77 L 160 83 M 77 160 L 83 160 M 77 0 L 83 0" stroke-opacity="0.9" stroke-miterlimit="2" stroke-width="1.5" stroke-dasharray=""/></g><g class="dcg-svg-axis-value dcg-svg-offcenter-axis-value"><text fill="none" stroke="#ffffff" font-family="Arial" font-size="10px" font-style="normal" font-weight="normal" text-decoration="normal" x="10.2265625" y="92.72" text-anchor="middle" stroke-miterlimit="2" stroke-width="3" stroke-dasharray="">-10</text><text fill="#000000" stroke="none" font-family="Arial" font-size="10px" font-style="normal" font-weight="normal" text-decoration="normal" x="10.2265625" y="92.72" text-anchor="middle">-10</text></g><g class="dcg-svg-axis-value dcg-svg-offcenter-axis-value"><text fill="none" stroke="#ffffff" font-family="Arial" font-size="10px" font-style="normal" font-weight="normal" text-decoration="normal" x="151.4384765625" y="92.72" text-anchor="middle" stroke-miterlimit="2" stroke-width="3" stroke-dasharray="">10</text><text fill="#000000" stroke="none" font-family="Arial" font-size="10px" font-style="normal" font-weight="normal" text-decoration="normal" x="151.4384765625" y="92.72" text-anchor="middle">10</text></g><g class="dcg-svg-axis-value dcg-svg-offcenter-axis-value"><text fill="none" stroke="#ffffff" font-family="Arial" font-size="10px" font-style="normal" font-weight="normal" text-decoration="normal" x="67.7734375" y="154.72" text-anchor="middle" stroke-miterlimit="2" stroke-width="3" stroke-dasharray="">-10</text><text fill="#000000" stroke="none" font-family="Arial" font-size="10px" font-style="normal" font-weight="normal" text-decoration="normal" x="67.7734375" y="154.72" text-anchor="middle">-10</text></g><g class="dcg-svg-axis-value dcg-svg-offcenter-axis-value"><text fill="none" stroke="#ffffff" font-family="Arial" font-size="10px" font-style="normal" font-weight="normal" text-decoration="normal" x="69.4384765625" y="10.72" text-anchor="middle" stroke-miterlimit="2" stroke-width="3" stroke-dasharray="">10</text><text fill="#000000" stroke="none" font-family="Arial" font-size="10px" font-style="normal" font-weight="normal" text-decoration="normal" x="69.4384765625" y="10.72" text-anchor="middle">10</text></g></g></g></g><g id="expressions-ff5c3dad"><g id="sketch-ff5c3dad"><title>Expression 1</title><path fill="#6042a6" stroke="none" paint-order="stroke fill markers" d="" fill-opacity="0.4"/><g><path fill="none" stroke="#6042a6" class="dcg-svg-curve" paint-order="fill stroke markers" d=" M -0.5 151.5 L -0.5 151.5 L 156.5 -5.5" stroke-linecap="round" stroke-linejoin="round" stroke-miterlimit="10" stroke-width="2.5" stroke-opacity="0.9" stroke-dasharray=""/></g></g><g id="sketch-ff5c3dad"><title>Expression 2</title><path fill="#000000" stroke="none" paint-order="stroke fill markers" d="" fill-opacity="0.4"/><g><path fill="none" stroke="#000000" class="dcg-svg-curve" paint-order="fill stroke markers" d=" M -0.5 78.7 L -0.5 78.7 L 17.46875 78.46826196473552 L 29.9296875 78.20890464933018 L 38.953125 77.92157996146436 L 45.671875 77.6080831408776 L 50.828125 77.26784741144414 L 54.890625 76.89936507936508 L 58.1328125 76.50475319926873 L 60.7890625 76.07954070981211 L 62.9765625 75.62671394799054 L 64.8125 75.14255319148936 L 66.375 74.62380952380953 L 67.7421875 74.05681063122924 L 68.953125 73.43185185185185 L 70.0078125 72.75761316872428 L 70.984375 71.98440366972477 L 71.8046875 71.18324873096446 L 72.5078125 70.34692737430167 L 73.1328125 69.44846625766871 L 73.6796875 68.50402684563758 L 74.1875 67.45294117647059 L 74.65625 66.28709677419354 L 75.0859375 65.00088495575221 L 75.515625 63.437254901960785 L 75.90625 61.69130434782609 L 76.2578125 59.76024096385542 L 76.609375 57.35945945945946 L 76.921875 54.67575757575757 L 77.234375 51.251724137931035 L 77.5078125 47.37450980392157 L 77.78125 42.263636363636365 L 78.015625 36.3842105263158 L 78.25 28.30000000000001 L 78.4453125 18.818518518518516 L 78.640625 5.027272727272731 L 78.74001693725586 -5.5" stroke-linecap="round" stroke-linejoin="round" stroke-miterlimit="10" stroke-width="2.5" stroke-opacity="0.9" stroke-dasharray=""/></g><g><path fill="none" stroke="#000000" class="dcg-svg-curve" paint-order="fill stroke markers" d=" M 80.2526969909668 165.5 L 80.2526969909668 165.5 L 80.3984375 150.73478260869564 L 80.59375 138.0142857142857 L 80.828125 127.68823529411765 L 81.0625 120.46000000000001 L 81.3359375 114.3595744680851 L 81.609375 109.84074074074074 L 81.921875 105.9258064516129 L 82.234375 102.90571428571428 L 82.5859375 100.23924050632911 L 82.9765625 97.90898876404495 L 83.3671875 96.04949494949494 L 83.796875 94.39454545454545 L 84.265625 92.92950819672132 L 84.734375 91.72686567164179 L 85.2421875 90.64557823129252 L 85.7890625 89.67639751552795 L 86.4140625 88.75649717514125 L 87.078125 87.94536082474227 L 87.859375 87.15607476635515 L 88.7578125 86.41308016877637 L 89.8125 85.7060606060606 L 90.984375 85.07278911564626 L 92.2734375 84.51039755351682 L 93.7578125 83.98876712328767 L 95.4765625 83.50586797066015 L 97.46875 83.06173913043479 L 99.8125 82.65076923076923 L 102.625 82.26756756756757 L 106.0625 81.90941176470588 L 110.28125 81.57918781725888 L 115.5546875 81.2750812567714 L 122.3125 80.9948905109489 L 131.1015625 80.74027252081757 L 142.8203125 80.51073411474398 L 158.9140625 80.30590260698474 L 159.5 80.3" stroke-linecap="round" stroke-linejoin="round" stroke-miterlimit="10" stroke-width="2.5" stroke-opacity="0.9" stroke-dasharray=""/></g></g></g><g id="labels-ff5c3dad"/></g></svg>