<svg version="1.1" xmlns="http://www.w3.org/2000/svg" xmlns:xlink="http://www.w3.org/1999/xlink" width="320" height="320"><defs/><g transform="scale(2,2)"><g id="background-d13a576b"><rect fill="white" stroke="none" x="0" y="0" width="160" height="160" class="dcg-svg-background"/></g><g id="background-images-d13a576b"/><g id="graphpaper-d13a576b"><g id="axis-d13a576b"><g id="yaxis-d13a576b"><title>Y axis</title><path fill="none" stroke="rgb(0,0,0)" class="dcg-svg-axis-line" paint-order="fill stroke markers" d=" M 80 0 L 80 160" stroke-opacity="0.9" stroke-miterlimit="10" stroke-width="1.5" stroke-dasharray=""/></g><g id="xaxis-d13a576b"><title>X axis</title><path fill="none" stroke="rgb(0,0,0)" class="dcg-svg-axis-line" paint-order="fill stroke markers" d=" M 0 80 L 160 80" stroke-opacity="0.9" stroke-miterlimit="10" stroke-width="1.5" stroke-dasharray=""/></g><g><g class="dcg-svg-axis-value"><text fill="none" stroke="#ffffff" font-family="Arial" font-size="10px" font-style="normal" font-weight="normal" text-decoration="normal" x="72.21923828125" y="92.72" text-anchor="middle" stroke-miterlimit="2" stroke-width="3" stroke-dasharray="">0</text><text fill="#000000" stroke="none" font-family="Arial" font-size="10px" font-style="normal" font-weight="normal" text-decoration="normal" x="72.21923828125" y="92.72" text-anchor="middle">0</text></g><g><path fill="none" stroke="rgb(0,0,0)" class="dcg-svg-tickmark" paint-order="fill stroke markers" d=" M 0 77 L 0 83 M 160 77 L 160 83 M 77 160 L 83 160 M 77 0 L 83 0" stroke-opacity="0.9" stroke-miterlimit="2" stroke-width="1.5" stroke-dasharray=""/></g><g class="dcg-svg-axis-value dcg-svg-offcenter-axis-value"><text fill="none" stroke="#ffffff" font-family="Arial" font-size="10px" font-style="normal" font-weight="normal" text-decoration="normal" x="10.2265625" y="92.72" text-anchor="middle" stroke-miterlimit="2" stroke-width="3" stroke-dasharray="">-10</text><text fill="#000000" stroke="none" font-family="Arial" font-size="10px" font-style="normal" font-weight="normal" text-decoration="normal" x="10.2265625" y="92.72" text-anchor="middle">-10</text></g><g class="dcg-svg-axis-value dcg-svg-offcenter-axis-value"><text fill="none" stroke="#ffffff" font-family="Arial" font-size="10px" font-style="normal" font-weight="normal" text-decoration="normal" x="151.4384765625" y="92.72" text-anchor="middle" stroke-miterlimit="2" stroke-width="3" stroke-dasharray="">10</text><text fill="#000000" stroke="none" font-family="Arial" font-size="10px" font-style="normal" font-weight="normal" text-decoration="normal" x="151.4384765625" y="92.72" text-anchor="middle">10</text></g><g class="dcg-svg-axis-value dcg-svg-offcenter-axis-value"><text fill="none" stroke="#ffffff" font-family="Arial" font-size="10px" font-style="normal" font-weight="normal" text-decoration="normal" x="67.7734375" y="154.72" text-anchor="middle" stroke-miterlimit="2" stroke-width="3" stroke-dasharray="">-10</text><text fill="#000000" stroke="none" font-family="Arial" font-size="10px" font-style="normal" font-weight="normal" text-decoration="normal" x="67.7734375" y="154.72" text-anchor="middle">-10</text></g><g class="dcg-svg-axis-value dcg-svg-offcenter-axis-value"><text fill="none" stroke="#ffffff" font-family="Arial" font-size="10px" font-style="normal" font-weight="normal" text-decoration="normal" x="69.4384765625" y="10.72" text-anchor="middle" stroke-miterlimit="2" stroke-width="3" stroke-dasharray="">10</text><text fill="#000000" stroke="none" font-family="Arial" font-size="10px" font-style="normal" font-weight="normal" text-decoration="normal" x="69.4384765625" y="10.72" text-anchor="middle">10</text></g></g></g></g><g id="expressions-d13a576b"><g id="sketch-d13a576b"><title>Expression 1</title><path fill="#6042a6" stroke="none" paint-order="stroke fill markers" d="" fill-opacity="0.4"/><g><path fill="none" stroke="#6042a6" class="dcg-svg-curve" paint-order="fill stroke markers" d=" M 1.5 165.5 L 1.5 165.5 L 159.5 7.5" stroke-linecap="round" stroke-linejoin="round" stroke-miterlimit="10" stroke-width="2.5" stroke-opacity="0.9" stroke-dasharray=""/></g></g><g id="sketch-d13a576b"><title>Expression 2</title><path fill="#000000" stroke="none" paint-order="stroke fill markers" d="" fill-opacity="0.4"/><g><path fill="none" stroke="#000000" class="dcg-svg-curve" paint-order="fill stroke markers" d=" M -0.5 80.3 L -0.5 80.3 L 17.46875 80.53173803526448 L 29.9296875 80.79109535066982 L 38.953125 81.07842003853564 L 45.671875 81.3919168591224 L 50.828125 81.73215258855586 L 54.890625 82.10063492063492 L 58.1328125 82.49524680073127 L 60.7890625 82.92045929018789 L 62.9765625 83.37328605200946 L 64.8125 83.85744680851064 L 66.375 84.37619047619047 L 67.7421875 84.94318936877076 L 68.953125 85.56814814814815 L 70.0078125 86.24238683127572 L 70.984375 87.01559633027523 L 71.8046875 87.81675126903554 L 72.5078125 88.65307262569833 L 73.1328125 89.55153374233129 L 73.6796875 90.49597315436242 L 74.1875 91.54705882352941 L 74.65625 92.71290322580646 L 75.0859375 93.99911504424779 L 75.515625 95.56274509803922 L 75.90625 97.30869565217391 L 76.2578125 99.23975903614458 L 76.609375 101.64054054054054 L 76.921875 104.32424242424243 L 77.234375 107.74827586206897 L 77.5078125 111.62549019607843 L 77.78125 116.73636363636363 L 78.015625 122.6157894736842 L 78.25 130.7 L 78.4453125 140.18148148148148 L 78.640625 153.97272727272727 L 78.74945831298828 165.5" stroke-linecap="round" stroke-linejoin="round" stroke-miterlimit="10" stroke-width="2.5" stroke-opacity="0.9" stroke-dasharray=""/></g><g><path fill="none" stroke="#000000" class="dcg-svg-curve" paint-order="fill stroke markers" d=" M 80.2625675201416 -5.5 L 80.2625675201416 -5.5 L 80.3984375 8.265217391304361 L 80.59375 20.985714285714295 L 80.828125 31.311764705882354 L 81.0625 38.53999999999999 L 81.3359375 44.6404255319149 L 81.609375 49.15925925925926 L 81.921875 53.0741935483871 L 82.234375 56.09428571428572 L 82.5859375 58.76075949367089 L 82.9765625 61.09101123595505 L 83.3671875 62.95050505050506 L 83.796875 64.60545454545455 L 84.265625 66.07049180327868 L 84.734375 67.27313432835821 L 85.2421875 68.35442176870748 L 85.7890625 69.32360248447205 L 86.4140625 70.24350282485875 L 87.078125 71.05463917525773 L 87.859375 71.84392523364485 L 88.7578125 72.58691983122363 L 89.8125 73.2939393939394 L 90.984375 73.92721088435374 L 92.2734375 74.48960244648318 L 93.7578125 75.01123287671233 L 95.4765625 75.49413202933985 L 97.46875 75.93826086956521 L 99.8125 76.34923076923077 L 102.625 76.73243243243243 L 106.0625 77.09058823529412 L 110.28125 77.42081218274112 L 115.5546875 77.7249187432286 L 122.3125 78.0051094890511 L 131.1015625 78.25972747918243 L 142.8203125 78.48926588525602 L 158.9140625 78.69409739301526 L 159.5 78.7" stroke-linecap="round" stroke-linejoin="round" stroke-miterlimit="10" stroke-width="2.5" stroke-opacity="0.9" stroke-dasharray=""/></g></g></g><g id="labels-d13a576b"/></g></svg>