<svg version="1.1" xmlns="http://www.w3.org/2000/svg" xmlns:xlink="http://www.w3.org/1999/xlink" width="800" height="800"><defs/><g transform="scale(2,2)"><g id="background-e5da6b8c"><rect fill="white" stroke="none" x="0" y="0" width="400" height="400" class="dcg-svg-background"/></g><g id="background-images-e5da6b8c"/><g id="graphpaper-e5da6b8c"><g id="axis-e5da6b8c"><g id="yaxis-e5da6b8c"><title>Y axis</title><path fill="none" stroke="rgb(0,0,0)" class="dcg-svg-axis-line" paint-order="fill stroke markers" d=" M 233 0 L 233 400" stroke-opacity="0.9" stroke-miterlimit="10" stroke-width="1.5" stroke-dasharray=""/></g><g id="xaxis-e5da6b8c"><title>X axis</title><path fill="none" stroke="rgb(0,0,0)" class="dcg-svg-axis-line" paint-order="fill stroke markers" d=" M 0 233 L 400 233" stroke-opacity="0.9" stroke-miterlimit="10" stroke-width="1.5" stroke-dasharray=""/></g><g><g class="dcg-svg-axis-value"><text fill="none" stroke="#ffffff" font-family="Arial" font-size="14px" font-style="normal" font-weight="normal" text-decoration="normal" x="224.4402669270832" y="249.14133333333336" text-anchor="middle" stroke-miterlimit="2" stroke-width="3" stroke-dasharray="">0</text><text fill="#000000" stroke="none" font-family="Arial" font-size="14px" font-style="normal" font-weight="normal" text-decoration="normal" x="224.4402669270832" y="249.14133333333336" text-anchor="middle">0</text></g><g><path fill="none" stroke="rgb(0,0,0)" class="dcg-svg-tickmark" paint-order="fill stroke markers" d=" M 67 230 L 67 236 M 400 230 L 400 236 M 230 67 L 236 67" stroke-opacity="0.9" stroke-miterlimit="2" stroke-width="1.5" stroke-dasharray=""/></g><g class="dcg-svg-axis-value"><text fill="none" stroke="#ffffff" font-family="Arial" font-size="14px" font-style="normal" font-weight="normal" text-decoration="normal" x="64.33561197916657" y="249.14133333333336" text-anchor="middle" stroke-miterlimit="2" stroke-width="3" stroke-dasharray="">-5</text><text fill="#000000" stroke="none" font-family="Arial" font-size="14px" font-style="normal" font-weight="normal" text-decoration="normal" x="64.33561197916657" y="249.14133333333336" text-anchor="middle">-5</text></g><g class="dcg-svg-axis-value dcg-svg-offcenter-axis-value"><text fill="none" stroke="#ffffff" font-family="Arial" font-size="14px" font-style="normal" font-weight="normal" text-decoration="normal" x="393.10693359375" y="249.14133333333336" text-anchor="middle" stroke-miterlimit="2" stroke-width="3" stroke-dasharray="">5</text><text fill="#000000" stroke="none" font-family="Arial" font-size="14px" font-style="normal" font-weight="normal" text-decoration="normal" x="393.10693359375" y="249.14133333333336" text-anchor="middle">5</text></g><g class="dcg-svg-axis-value"><text fill="none" stroke="#ffffff" font-family="Arial" font-size="14px" font-style="normal" font-weight="normal" text-decoration="normal" x="224.4402669270832" y="70.47466666666666" text-anchor="middle" stroke-miterlimit="2" stroke-width="3" stroke-dasharray="">5</text><text fill="#000000" stroke="none" font-family="Arial" font-size="14px" font-style="normal" font-weight="normal" text-decoration="normal" x="224.4402669270832" y="70.47466666666666" text-anchor="middle">5</text></g></g></g></g><g id="expressions-e5da6b8c"><g id="sketch-e5da6b8c"><title>Expression 1</title><path fill="#000000" stroke="none" paint-order="stroke fill markers" d="" fill-opacity="0.4"/><g><path fill="none" stroke="#000000" class="dcg-svg-curve" paint-order="fill stroke markers" d=" M -0.5 270.9285714285715 L -0.5 270.9285714285715 L 12.878906249999998 273.24574515317454 L 25.183593749999996 275.64046088728645 L 36.51171874999999 278.1105123528437 L 47.05859375000002 280.6810057823726 L 56.82421875000002 283.3357684483078 L 65.90625000000001 286.08346333853365 L 74.30468749999999 288.90451745379886 L 82.21484374999999 291.84925437648593 L 89.63671874999999 294.9080472834736 L 96.57031249999999 298.0666507405639 L 103.11328124999999 301.35696361355093 L 109.36328124999999 304.8255997890853 L 115.3203125 308.4750692520777 L 120.984375 312.30558789289887 L 126.35546875 316.3144298379702 L 131.43359375 320.49518459069037 L 136.12109375 324.74402558061274 L 140.515625 329.11918194640356 L 144.6171875 333.5959409594098 L 148.42578125 338.142499035866 L 152.0390625 342.85213537469804 L 155.45703125 347.71203197307557 L 158.6796875 352.70456540825313 L 161.8046875 357.9784601283229 L 164.734375 363.362332695985 L 167.56640625 369.0261845386537 L 170.30078125 374.9815200416453 L 172.93749999999997 381.23913043478296 L 175.47656249999997 387.8087400681048 L 177.91796874999997 394.6985773562541 L 180.26171875 401.91486068111504 L 181.32673096656785 405.5" stroke-linecap="round" stroke-linejoin="round" stroke-miterlimit="10" stroke-width="2.5" stroke-opacity="0.9" stroke-dasharray=""/></g><g><path fill="none" stroke="#000000" class="dcg-svg-curve" paint-order="fill stroke markers" d=" M 270.14152002334583 -5.5 L 270.14152002334583 -5.5 L 270.3984375 -3.792894280761743 L 272.3515625 7.901976935750383 L 274.40234375 18.998825371966234 L 276.55078125 29.507446016381834 L 278.69921875 39.03158268275428 L 280.9453125 48.07916102841733 L 283.19140625 56.31965093729849 L 285.53515625 64.1695491043858 L 287.9765625 71.63695395513611 L 290.515625 78.73250564334114 L 293.15234375 85.46869940636833 L 295.7890625 91.64064115822163 L 298.5234375 97.51783944499533 L 301.35546875 103.11045130641361 L 304.3828125 108.59918107370368 L 307.5078125 113.79816913687904 L 310.73046875 118.72273297116612 L 314.1484375 123.51921537229805 L 317.76171875 128.16998850134172 L 321.5703125 132.66214233308898 L 325.57421875 136.98683748683766 L 329.87109375 141.23096276417323 L 334.4609375 145.36803331197964 L 339.44140625 149.45419847328256 L 344.8125 153.45348837209312 L 350.4765625 157.275318206973 L 356.43359375 160.91690808533062 L 362.68359375 164.3784156430184 L 369.2265625 167.66229116945118 L 376.16015625 170.81501249148317 L 383.484375 173.83016421780476 L 391.296875 176.7391125718982 L 399.5 179.50000000000006" stroke-linecap="round" stroke-linejoin="round" stroke-miterlimit="10" stroke-width="2.5" stroke-opacity="0.9" stroke-dasharray=""/></g></g><g id="sketch-e5da6b8c"><title>Expression 2</title><path fill="#388c46" stroke="none" paint-order="stroke fill markers" d="" fill-opacity="0.4"/><g><path fill="none" stroke="#388c46" class="dcg-svg-curve" paint-order="fill stroke markers" d=" M -0.5 399.5 L -0.5 399.5 L 399.5 -0.5000000000001705" stroke-linecap="round" stroke-linejoin="round" stroke-miterlimit="10" stroke-width="2.5" stroke-opacity="0.9" stroke-dasharray=""/></g></g></g><g id="labels-e5da6b8c"/></g></svg>