<svg version="1.1" xmlns="http://www.w3.org/2000/svg" xmlns:xlink="http://www.w3.org/1999/xlink" width="320" height="320"><defs/><g transform="scale(2,2)"><g id="background-e1476b55"><rect fill="white" stroke="none" x="0" y="0" width="160" height="160" class="dcg-svg-background"/></g><g id="background-images-e1476b55"/><g id="graphpaper-e1476b55"><g id="grid-e1476b55"><g><path fill="none" stroke="rgb(0,0,0)" class="dcg-svg-minor-gridline" paint-order="fill stroke markers" d=" M -0.5 0 L -0.5 160" stroke-opacity="0.2" stroke-miterlimit="10" stroke-dasharray=""/><path fill="none" stroke="rgb(0,0,0)" class="dcg-svg-minor-gridline" paint-order="fill stroke markers" d=" M 15.5 0 L 15.5 160" stroke-opacity="0.2" stroke-miterlimit="10" stroke-dasharray=""/><path fill="none" stroke="rgb(0,0,0)" class="dcg-svg-minor-gridline" paint-order="fill stroke markers" d=" M 31.5 0 L 31.5 160" stroke-opacity="0.2" stroke-miterlimit="10" stroke-dasharray=""/><path fill="none" stroke="rgb(0,0,0)" class="dcg-svg-minor-gridline" paint-order="fill stroke markers" d=" M 47.5 0 L 47.5 160" stroke-opacity="0.2" stroke-miterlimit="10" stroke-dasharray=""/><path fill="none" stroke="rgb(0,0,0)" class="dcg-svg-minor-gridline" paint-order="fill stroke markers" d=" M 63.5 0 L 63.5 160" stroke-opacity="0.2" stroke-miterlimit="10" stroke-dasharray=""/><path fill="none" stroke="rgb(0,0,0)" class="dcg-svg-minor-gridline" paint-order="fill stroke markers" d=" M 95.5 0 L 95.5 160" stroke-opacity="0.2" stroke-miterlimit="10" stroke-dasharray=""/><path fill="none" stroke="rgb(0,0,0)" class="dcg-svg-minor-gridline" paint-order="fill stroke markers" d=" M 111.5 0 L 111.5 160" stroke-opacity="0.2" stroke-miterlimit="10" stroke-dasharray=""/><path fill="none" stroke="rgb(0,0,0)" class="dcg-svg-minor-gridline" paint-order="fill stroke markers" d=" M 127.5 0 L 127.5 160" stroke-opacity="0.2" stroke-miterlimit="10" stroke-dasharray=""/><path fill="none" stroke="rgb(0,0,0)" class="dcg-svg-minor-gridline" paint-order="fill stroke markers" d=" M 143.5 0 L 143.5 160" stroke-opacity="0.2" stroke-miterlimit="10" stroke-dasharray=""/><path fill="none" stroke="rgb(0,0,0)" class="dcg-svg-minor-gridline" paint-order="fill stroke markers" d=" M 0 143.5 L 160 143.5" stroke-opacity="0.2" stroke-miterlimit="10" stroke-dasharray=""/><path fill="none" stroke="rgb(0,0,0)" class="dcg-svg-minor-gridline" paint-order="fill stroke markers" d=" M 0 127.5 L 160 127.5" stroke-opacity="0.2" stroke-miterlimit="10" stroke-dasharray=""/><path fill="none" stroke="rgb(0,0,0)" class="dcg-svg-minor-gridline" paint-order="fill stroke markers" d=" M 0 111.5 L 160 111.5" stroke-opacity="0.2" stroke-miterlimit="10" stroke-dasharray=""/><path fill="none" stroke="rgb(0,0,0)" class="dcg-svg-minor-gridline" paint-order="fill stroke markers" d=" M 0 95.5 L 160 95.5" stroke-opacity="0.2" stroke-miterlimit="10" stroke-dasharray=""/><path fill="none" stroke="rgb(0,0,0)" class="dcg-svg-minor-gridline" paint-order="fill stroke markers" d=" M 0 63.5 L 160 63.5" stroke-opacity="0.2" stroke-miterlimit="10" stroke-dasharray=""/><path fill="none" stroke="rgb(0,0,0)" class="dcg-svg-minor-gridline" paint-order="fill stroke markers" d=" M 0 47.5 L 160 47.5" stroke-opacity="0.2" stroke-miterlimit="10" stroke-dasharray=""/><path fill="none" stroke="rgb(0,0,0)" class="dcg-svg-minor-gridline" paint-order="fill stroke markers" d=" M 0 31.5 L 160 31.5" stroke-opacity="0.2" stroke-miterlimit="10" stroke-dasharray=""/><path fill="none" stroke="rgb(0,0,0)" class="dcg-svg-minor-gridline" paint-order="fill stroke markers" d=" M 0 15.5 L 160 15.5" stroke-opacity="0.2" stroke-miterlimit="10" stroke-dasharray=""/><path fill="none" stroke="rgb(0,0,0)" class="dcg-svg-minor-gridline" paint-order="fill stroke markers" d=" M 0 -0.5 L 160 -0.5" stroke-opacity="0.2" stroke-miterlimit="10" stroke-dasharray=""/><path fill="none" stroke="rgb(0,0,0)" class="dcg-svg-major-gridline" paint-order="fill stroke markers" d=" M -0.5 0 L -0.5 160" stroke-opacity="0.2500000000000001" stroke-miterlimit="10" stroke-dasharray=""/><path fill="none" stroke="rgb(0,0,0)" class="dcg-svg-major-gridline" paint-order="fill stroke markers" d=" M 0 -0.5 L 160 -0.5" stroke-opacity="0.2500000000000001" stroke-miterlimit="10" stroke-dasharray=""/></g></g><g id="axis-e1476b55"><g id="yaxis-e1476b55"><title>Y axis</title><path fill="none" stroke="rgb(0,0,0)" class="dcg-svg-axis-line" paint-order="fill stroke markers" d=" M 80 0 L 80 160" stroke-opacity="0.9" stroke-miterlimit="10" stroke-width="1.5" stroke-dasharray=""/></g><g id="xaxis-e1476b55"><title>X axis</title><path fill="none" stroke="rgb(0,0,0)" class="dcg-svg-axis-line" paint-order="fill stroke markers" d=" M 0 80 L 160 80" stroke-opacity="0.9" stroke-miterlimit="10" stroke-width="1.5" stroke-dasharray=""/></g><g><g class="dcg-svg-axis-value"><text fill="none" stroke="#ffffff" font-family="Arial" font-size="10px" font-style="normal" font-weight="normal" text-decoration="normal" x="72.21923828125" y="92.72" text-anchor="middle" stroke-miterlimit="2" stroke-width="3" stroke-dasharray="">0</text><text fill="#000000" stroke="none" font-family="Arial" font-size="10px" font-style="normal" font-weight="normal" text-decoration="normal" x="72.21923828125" y="92.72" text-anchor="middle">0</text></g><g class="dcg-svg-axis-value dcg-svg-offcenter-axis-value"><text fill="none" stroke="#ffffff" font-family="Arial" font-size="10px" font-style="normal" font-weight="normal" text-decoration="normal" x="10.2265625" y="92.72" text-anchor="middle" stroke-miterlimit="2" stroke-width="3" stroke-dasharray="">-10</text><text fill="#000000" stroke="none" font-family="Arial" font-size="10px" font-style="normal" font-weight="normal" text-decoration="normal" x="10.2265625" y="92.72" text-anchor="middle">-10</text></g><g class="dcg-svg-axis-value dcg-svg-offcenter-axis-value"><text fill="none" stroke="#ffffff" font-family="Arial" font-size="10px" font-style="normal" font-weight="normal" text-decoration="normal" x="151.4384765625" y="92.72" text-anchor="middle" stroke-miterlimit="2" stroke-width="3" stroke-dasharray="">10</text><text fill="#000000" stroke="none" font-family="Arial" font-size="10px" font-style="normal" font-weight="normal" text-decoration="normal" x="151.4384765625" y="92.72" text-anchor="middle">10</text></g><g class="dcg-svg-axis-value dcg-svg-offcenter-axis-value"><text fill="none" stroke="#ffffff" font-family="Arial" font-size="10px" font-style="normal" font-weight="normal" text-decoration="normal" x="67.7734375" y="154.72" text-anchor="middle" stroke-miterlimit="2" stroke-width="3" stroke-dasharray="">-10</text><text fill="#000000" stroke="none" font-family="Arial" font-size="10px" font-style="normal" font-weight="normal" text-decoration="normal" x="67.7734375" y="154.72" text-anchor="middle">-10</text></g><g class="dcg-svg-axis-value dcg-svg-offcenter-axis-value"><text fill="none" stroke="#ffffff" font-family="Arial" font-size="10px" font-style="normal" font-weight="normal" text-decoration="normal" x="69.4384765625" y="10.72" text-anchor="middle" stroke-miterlimit="2" stroke-width="3" stroke-dasharray="">10</text><text fill="#000000" stroke="none" font-family="Arial" font-size="10px" font-style="normal" font-weight="normal" text-decoration="normal" x="69.4384765625" y="10.72" text-anchor="middle">10</text></g></g></g></g><g id="expressions-e1476b55"><g id="sketch-e1476b55"><title>Expression 1</title><path fill="#c74440" stroke="none" paint-order="stroke fill markers" d="" fill-opacity="0.4"/><g><path fill="none" stroke="#c74440" class="dcg-svg-curve" paint-order="fill stroke markers" d=" M -0.5 81.1 L -0.5 81.1 L 12.703125 81.41625730994151 L 22.859375 81.75986206896552 L 30.828125 82.1298555377207 L 37.234375 82.52846580406654 L 42.4296875 82.95289778714437 L 46.7265625 83.40560190703218 L 50.3203125 83.88661311914323 L 53.3671875 84.39805680119582 L 55.984375 84.94318936877076 L 58.2109375 85.51247706422018 L 60.1640625 86.11979797979798 L 61.8828125 86.76563192904656 L 63.40625 87.45339805825243 L 64.8125 88.21489361702127 L 66.0625 89.02558139534884 L 67.234375 89.93566878980891 L 68.25 90.87777777777778 L 69.1484375 91.86528301886793 L 69.9296875 92.87469387755102 L 70.6328125 93.9352422907489 L 71.296875 95.10380952380953 L 71.921875 96.39072164948453 L 72.5078125 97.80614525139664 L 73.0546875 99.35939393939394 L 73.5625 101.0578947368421 L 74.03125 102.90571428571428 L 74.5 105.1 L 74.9296875 107.5068376068376 L 75.3203125 110.12429906542056 L 75.7109375 113.28144329896907 L 76.0625 116.73636363636363 L 76.4140625 120.97848101265822 L 76.7265625 125.65211267605633 L 77.0390625 131.5126984126984 L 77.3125 138.0142857142857 L 77.5859375 146.3734693877551 L 77.859375 157.51904761904763 L 78.00322723388672 165.5" stroke-linecap="round" stroke-linejoin="round" stroke-miterlimit="10" stroke-width="2.5" stroke-opacity="0.9" stroke-dasharray=""/></g><g><path fill="none" stroke="#c74440" class="dcg-svg-curve" paint-order="fill stroke markers" d=" M 81.01256561279297 -5.5 L 81.01256561279297 -5.5 L 81.0625 -2.420000000000016 L 81.3359375 9.7808510638298 L 81.609375 18.818518518518516 L 81.921875 26.6483870967742 L 82.234375 32.688571428571436 L 82.5859375 38.02151898734178 L 82.9375 42.263636363636365 L 83.328125 46.063265306122446 L 83.7578125 49.43761467889908 L 84.1875 52.19333333333333 L 84.65625 54.67575757575757 L 85.125 56.74444444444444 L 85.6328125 58.62866242038217 L 86.1796875 60.3374269005848 L 86.7265625 61.787567567567564 L 87.3125 63.116 L 87.9375 64.32962962962964 L 88.640625 65.49658119658119 L 89.3828125 66.54822134387352 L 90.203125 67.54087591240877 L 91.1015625 68.46700336700337 L 92.1171875 69.35510835913313 L 93.2890625 70.21728045325779 L 94.578125 71.01088082901555 L 95.984375 71.7350710900474 L 97.546875 72.40735930735931 L 99.3046875 73.03688362919132 L 101.2578125 73.61705565529623 L 103.484375 74.16319218241043 L 106.0234375 74.6740795287187 L 108.9921875 75.15986754966887 L 112.4296875 75.6129300118624 L 116.4921875 76.03980992608237 L 121.3359375 76.44042950513538 L 127.1953125 76.81629811629811 L 134.34375 77.16609686609686 L 143.171875 77.48969325153374 L 154.3046875 77.7888772845953 L 159.5 77.9" stroke-linecap="round" stroke-linejoin="round" stroke-miterlimit="10" stroke-width="2.5" stroke-opacity="0.9" stroke-dasharray=""/></g></g></g><g id="labels-e1476b55"/></g></svg>