<svg xmlns="http://www.w3.org/2000/svg" width="800" height="800"><path fill="#fff" class="dcg-svg-background" d="M0 0h800v800H0z"/><g transform="scale(2)"><path fill="none" stroke="#000" class="dcg-svg-axis-line" paint-order="fill stroke markers" d="M174 3v397" stroke-opacity=".9" stroke-miterlimit="10" stroke-width="1.5"/><g class="dcg-svg-axis-line"><path stroke="#000" class="dcg-svg-axis-line" paint-order="stroke fill markers" d="m174 1.5 3.106 11.591h-6.212L174 1.5l3.106 11.591" stroke-opacity=".9" stroke-linejoin="round" stroke-miterlimit="10" stroke-width="1.5" fill-opacity=".9"/></g></g><g transform="scale(2)"><path fill="none" stroke="#000" class="dcg-svg-axis-line" paint-order="fill stroke markers" d="M0 191h397" stroke-opacity=".9" stroke-miterlimit="10" stroke-width="1.5"/><g class="dcg-svg-axis-line"><path stroke="#000" class="dcg-svg-axis-line" paint-order="stroke fill markers" d="m398.5 191-11.591 3.106v-6.212L398.5 191l-11.591 3.106" stroke-opacity=".9" stroke-linejoin="round" stroke-miterlimit="10" stroke-width="1.5" fill-opacity=".9"/></g></g><g/><g><g class="dcg-svg-label"><text fill="none" stroke="#FFF" font-family="arial, sans-serif" font-size="30.8" font-weight="400" text-decoration="normal" y="27.978" stroke-linecap="round" stroke-linejoin="round" stroke-miterlimit="2" stroke-width="3" stroke-opacity=".9" transform="matrix(2 0 0 2 470.828 156.375)">(+,+)</text><text font-family="arial, sans-serif" font-size="30.8" font-weight="400" text-decoration="normal" y="27.978" fill-opacity=".9" transform="matrix(2 0 0 2 470.828 156.375)">(+,+)</text></g><g class="dcg-svg-label"><text fill="none" stroke="#FFF" font-family="arial, sans-serif" font-size="30.8" font-weight="400" text-decoration="normal" y="27.978" stroke-linecap="round" stroke-linejoin="round" stroke-miterlimit="2" stroke-width="3" stroke-opacity=".9" transform="matrix(2 0 0 2 478.547 532.844)">(+,-)</text><text font-family="arial, sans-serif" font-size="30.8" font-weight="400" text-decoration="normal" y="27.978" fill-opacity=".9" transform="matrix(2 0 0 2 478.547 532.844)">(+,-)</text></g><g class="dcg-svg-label"><text fill="none" stroke="#FFF" font-family="arial, sans-serif" font-size="30.8" font-weight="400" text-decoration="normal" y="27.978" stroke-linecap="round" stroke-linejoin="round" stroke-miterlimit="2" stroke-width="3" stroke-opacity=".9" transform="matrix(2 0 0 2 102.078 156.375)">(-,+)</text><text font-family="arial, sans-serif" font-size="30.8" font-weight="400" text-decoration="normal" y="27.978" fill-opacity=".9" transform="matrix(2 0 0 2 102.078 156.375)">(-,+)</text></g><g class="dcg-svg-label"><text fill="none" stroke="#FFF" font-family="arial, sans-serif" font-size="30.8" font-weight="400" text-decoration="normal" y="27.978" stroke-linecap="round" stroke-linejoin="round" stroke-miterlimit="2" stroke-width="3" stroke-opacity=".9" transform="matrix(2 0 0 2 109.813 532.844)">(-,-)</text><text font-family="arial, sans-serif" font-size="30.8" font-weight="400" text-decoration="normal" y="27.978" fill-opacity=".9" transform="matrix(2 0 0 2 109.813 532.844)">(-,-)</text></g><g class="dcg-svg-label"><text fill="none" stroke="#FFF" font-family="arial, sans-serif" font-size="30.8" font-weight="400" text-decoration="normal" y="27.978" stroke-linecap="round" stroke-linejoin="round" stroke-miterlimit="2" stroke-width="3" stroke-opacity=".9" transform="matrix(2 0 0 2 286.016 156.375)">(0,y)</text><text font-family="arial, sans-serif" font-size="30.8" font-weight="400" text-decoration="normal" y="27.978" fill-opacity=".9" transform="matrix(2 0 0 2 286.016 156.375)">(0,y)</text></g><g class="dcg-svg-label"><text fill="none" stroke="#FFF" font-family="arial, sans-serif" font-size="30.8" font-weight="400" text-decoration="normal" y="27.978" stroke-linecap="round" stroke-linejoin="round" stroke-miterlimit="2" stroke-width="3" stroke-opacity=".9" transform="matrix(2 0 0 2 275.766 532.844)">(0,-y)</text><text font-family="arial, sans-serif" font-size="30.8" font-weight="400" text-decoration="normal" y="27.978" fill-opacity=".9" transform="matrix(2 0 0 2 275.766 532.844)">(0,-y)</text></g><g class="dcg-svg-label"><text fill="none" stroke="#FFF" font-family="arial, sans-serif" font-size="30.8" font-weight="400" text-decoration="normal" y="27.978" stroke-linecap="round" stroke-linejoin="round" stroke-miterlimit="2" stroke-width="3" stroke-opacity=".9" transform="matrix(2 0 0 2 87.547 344.594)">(-x,0)</text><text font-family="arial, sans-serif" font-size="30.8" font-weight="400" text-decoration="normal" y="27.978" fill-opacity=".9" transform="matrix(2 0 0 2 87.547 344.594)">(-x,0)</text></g><g class="dcg-svg-label"><text fill="none" stroke="#FFF" font-family="arial, sans-serif" font-size="30.8" font-weight="400" text-decoration="normal" y="27.978" stroke-linecap="round" stroke-linejoin="round" stroke-miterlimit="2" stroke-width="3" stroke-opacity=".9" transform="matrix(2 0 0 2 474.266 344.594)">(x,0)</text><text font-family="arial, sans-serif" font-size="30.8" font-weight="400" text-decoration="normal" y="27.978" fill-opacity=".9" transform="matrix(2 0 0 2 474.266 344.594)">(x,0)</text></g><g class="dcg-svg-label"><text fill="none" stroke="#FFF" font-family="arial, sans-serif" font-size="30.8" font-weight="400" text-decoration="normal" y="27.978" stroke-linecap="round" stroke-linejoin="round" stroke-miterlimit="2" stroke-width="3" stroke-opacity=".9" transform="matrix(2 0 0 2 330.484 344.594)">0</text><text font-family="arial, sans-serif" font-size="30.8" font-weight="400" text-decoration="normal" y="27.978" fill-opacity=".9" transform="matrix(2 0 0 2 330.484 344.594)">0</text></g></g></svg>